<mxfile host="app.diagrams.net" modified="2024-05-30T14:07:46.115Z" agent="Mozilla/5.0 (Windows NT 10.0; Win64; x64) AppleWebKit/537.36 (KHTML, like Gecko) Chrome/125.0.0.0 Safari/537.36 Edg/125.0.0.0" etag="GZEfioY8ldNQyBWBIusJ" version="24.4.10" type="github">
  <diagram name="第 1 页" id="LmuZkWDyMrsbqc7eGMP2">
    <mxGraphModel dx="1249" dy="786" grid="1" gridSize="10" guides="1" tooltips="1" connect="1" arrows="1" fold="1" page="1" pageScale="1" pageWidth="827" pageHeight="1169" math="0" shadow="0">
      <root>
        <mxCell id="0" />
        <mxCell id="1" parent="0" />
        <mxCell id="1I5gTGWkLh2d79B4E214-1" value="夸克高考" style="rounded=1;whiteSpace=wrap;html=1;" vertex="1" parent="1">
          <mxGeometry x="320" y="280" width="120" height="40" as="geometry" />
        </mxCell>
        <mxCell id="1I5gTGWkLh2d79B4E214-2" value="一分一段" style="rounded=1;whiteSpace=wrap;html=1;" vertex="1" parent="1">
          <mxGeometry x="90" y="220" width="80" height="40" as="geometry" />
        </mxCell>
        <mxCell id="1I5gTGWkLh2d79B4E214-5" value="省控线" style="rounded=1;whiteSpace=wrap;html=1;" vertex="1" parent="1">
          <mxGeometry x="90" y="290" width="80" height="40" as="geometry" />
        </mxCell>
        <mxCell id="1I5gTGWkLh2d79B4E214-6" value="高校PK" style="rounded=1;whiteSpace=wrap;html=1;" vertex="1" parent="1">
          <mxGeometry x="90" y="350" width="80" height="40" as="geometry" />
        </mxCell>
        <mxCell id="1I5gTGWkLh2d79B4E214-7" value="测概率" style="rounded=1;whiteSpace=wrap;html=1;" vertex="1" parent="1">
          <mxGeometry x="90" y="410" width="80" height="40" as="geometry" />
        </mxCell>
        <mxCell id="1I5gTGWkLh2d79B4E214-8" value="选科查询" style="rounded=1;whiteSpace=wrap;html=1;" vertex="1" parent="1">
          <mxGeometry x="520" y="520" width="80" height="40" as="geometry" />
        </mxCell>
        <mxCell id="1I5gTGWkLh2d79B4E214-9" value="查扩缩招" style="rounded=1;whiteSpace=wrap;html=1;" vertex="1" parent="1">
          <mxGeometry x="520" y="570" width="80" height="40" as="geometry" />
        </mxCell>
        <mxCell id="1I5gTGWkLh2d79B4E214-13" value="查大学" style="rounded=1;whiteSpace=wrap;html=1;" vertex="1" parent="1">
          <mxGeometry x="520" y="80" width="80" height="40" as="geometry" />
        </mxCell>
        <mxCell id="1I5gTGWkLh2d79B4E214-14" value="查专业" style="rounded=1;whiteSpace=wrap;html=1;" vertex="1" parent="1">
          <mxGeometry x="520" y="150" width="80" height="40" as="geometry" />
        </mxCell>
        <mxCell id="1I5gTGWkLh2d79B4E214-15" value="同分去向" style="rounded=1;whiteSpace=wrap;html=1;" vertex="1" parent="1">
          <mxGeometry x="90" y="160" width="80" height="40" as="geometry" />
        </mxCell>
        <mxCell id="1I5gTGWkLh2d79B4E214-16" value="性格测试" style="rounded=1;whiteSpace=wrap;html=1;" vertex="1" parent="1">
          <mxGeometry x="520" y="630" width="80" height="40" as="geometry" />
        </mxCell>
        <mxCell id="1I5gTGWkLh2d79B4E214-17" value="院校城市" style="rounded=1;whiteSpace=wrap;html=1;" vertex="1" parent="1">
          <mxGeometry x="640" y="30" width="80" height="40" as="geometry" />
        </mxCell>
        <mxCell id="1I5gTGWkLh2d79B4E214-18" value="院校类型" style="rounded=1;whiteSpace=wrap;html=1;fillColor=default;strokeColor=default;" vertex="1" parent="1">
          <mxGeometry x="640" y="80" width="80" height="40" as="geometry" />
        </mxCell>
        <mxCell id="1I5gTGWkLh2d79B4E214-19" value="模拟志愿" style="rounded=1;whiteSpace=wrap;html=1;" vertex="1" parent="1">
          <mxGeometry x="520" y="240" width="80" height="40" as="geometry" />
        </mxCell>
        <mxCell id="1I5gTGWkLh2d79B4E214-20" value="冲、稳、保" style="rounded=1;whiteSpace=wrap;html=1;" vertex="1" parent="1">
          <mxGeometry x="640" y="220" width="80" height="40" as="geometry" />
        </mxCell>
        <mxCell id="1I5gTGWkLh2d79B4E214-21" value="院校优先" style="rounded=1;whiteSpace=wrap;html=1;" vertex="1" parent="1">
          <mxGeometry x="640" y="270" width="80" height="40" as="geometry" />
        </mxCell>
        <mxCell id="1I5gTGWkLh2d79B4E214-22" value="专业优先" style="rounded=1;whiteSpace=wrap;html=1;" vertex="1" parent="1">
          <mxGeometry x="640" y="320" width="80" height="40" as="geometry" />
        </mxCell>
      </root>
    </mxGraphModel>
  </diagram>
</mxfile>
